<?xml version="1.0" encoding="utf-8"?>
<!-- Generator: Adobe Illustrator 22.1.0, SVG Export Plug-In . SVG Version: 6.00 Build 0)  -->
<svg version="1.1" id="Layer_1" xmlns="http://www.w3.org/2000/svg" xmlns:xlink="http://www.w3.org/1999/xlink" x="0px" y="0px"
	 viewBox="0 0 25.4 25.4" enable-background="new 0 0 25.4 25.4" xml:space="preserve">
<g>
	<g>
		<g>
			<path fill="#FFFFFF" d="M12.8,7.9c2.2,0,4.1-1.8,4.1-4.1C14.7,3.8,12.8,5.7,12.8,7.9z"/>
		</g>
	</g>
	<g>
		<g>
			<path fill="#FFFFFF" d="M16.6,13.3c0-1.4,1-2.7,2.5-3.1c-0.9-1.1-2.3-1.9-3.7-1.9c-1,0-2,0.6-2,0.6c-0.3,0.2-0.8,0.2-1.1,0
				c0,0-1-0.6-2-0.6c-2.8,0-5,2.5-5,5.5c0,4.3,2,7.8,4.4,7.8c1.2,0,2.6-0.7,2.6-0.7c0.3-0.1,0.8-0.1,1.1,0c0,0,1.4,0.7,2.6,0.7
				c1.9,0,3.5-2.1,4.1-5C18.1,16.4,16.6,15,16.6,13.3z"/>
		</g>
	</g>
</g>
</svg>
