<?xml version="1.0" encoding="utf-8"?>
<!-- Generator: Adobe Illustrator 22.1.0, SVG Export Plug-In . SVG Version: 6.00 Build 0)  -->
<svg version="1.1" id="Layer_1" xmlns="http://www.w3.org/2000/svg" xmlns:xlink="http://www.w3.org/1999/xlink" x="0px" y="0px"
	 viewBox="0 0 25.4 25.4" enable-background="new 0 0 25.4 25.4" xml:space="preserve">
<g id="Rounded_Rectangle_18">
	<g>
		<path fill-rule="evenodd" clip-rule="evenodd" fill="#FFFFFF" d="M22.4,1.1H3.1c-1.3,0-2.4,1.1-2.4,2.4v19.2
			c0,1.3,1.1,2.4,2.4,2.4h19.2c1.3,0,2.4-1.1,2.4-2.4V3.5C24.8,2.2,23.7,1.1,22.4,1.1z"/>
	</g>
</g>
<g>
	<path fill="#FBBB00" d="M8.9,14.9l-0.5,2l-1.9,0c-0.6-1.1-0.9-2.3-0.9-3.6c0-1.3,0.3-2.5,0.9-3.5h0l1.7,0.3l0.8,1.7
		c-0.2,0.5-0.2,1-0.2,1.5C8.6,13.8,8.7,14.4,8.9,14.9z"/>
	<path fill="#518EF8" d="M20.6,11.8c0.1,0.5,0.1,0.9,0.1,1.4c0,0.5-0.1,1.1-0.2,1.6c-0.4,1.8-1.3,3.3-2.7,4.4l0,0l-2.2-0.1l-0.3-1.9
		c0.9-0.5,1.6-1.3,2-2.3h-4.1v-3h4.1H20.6L20.6,11.8z"/>
	<path fill="#28B446" d="M17.9,19.2L17.9,19.2c-1.3,1.1-3,1.7-4.8,1.7c-2.9,0-5.4-1.6-6.7-4l2.5-2c0.6,1.7,2.3,2.9,4.3,2.9
		c0.8,0,1.6-0.2,2.3-0.6L17.9,19.2z"/>
	<path fill="#F14336" d="M18,7.4l-2.5,2C14.8,9,14,8.7,13.1,8.7c-2,0-3.7,1.3-4.3,3.1l-2.5-2h0c1.3-2.5,3.8-4.1,6.8-4.1
		C15,5.6,16.7,6.3,18,7.4z"/>
</g>
</svg>
