<?xml version="1.0" encoding="utf-8"?>
<!-- Generator: Adobe Illustrator 22.1.0, SVG Export Plug-In . SVG Version: 6.00 Build 0)  -->
<svg version="1.0" xmlns="http://www.w3.org/2000/svg" xmlns:xlink="http://www.w3.org/1999/xlink" x="0px" y="0px"
	 viewBox="0 0 436.1 125.3" style="enable-background:new 0 0 436.1 125.3;" xml:space="preserve">
<g id="Layer_0_xA0_Image_1_">
	<g>
		<path fill="#3183FF"  d="M47.1,122.3l-40.8-9.7c-1.6-0.4-2.6-2-2.2-3.6l9.7-40.8c0.4-1.6,2-2.6,3.6-2.2l40.8,9.7
			c1.6,0.4,2.6,2,2.2,3.6l-9.7,40.8C50.3,121.7,48.7,122.7,47.1,122.3z"/>
		<g>
			<g>
				<g>
					<path d="M15.5,35.9c0-17.3,12.9-29,29.4-29c11.3,0,18.3,5.8,22.4,12.5L59,23.8c-2.7-4.7-8.1-8.1-14.1-8.1
						c-11.1,0-19.3,8.4-19.3,20.2c0,11.7,8.2,20.2,19.3,20.2c6,0,11.4-3.5,14.1-8.1l8.4,4.2c-4.3,6.7-11.3,12.7-22.5,12.7
						C28.3,64.9,15.5,53.1,15.5,35.9z"/>
					<path d="M102.4,63.9v-5.4c-2.9,3.2-7.9,6.4-14.3,6.4C79.3,64.9,75,60.3,75,52V23.3h8.8v25.5c0,6.3,3.2,8.3,8.2,8.3
						c4.5,0,8.3-2.6,10.3-5.3V23.3h8.8v40.6H102.4z"/>
					<path d="M122.6,63.9v-56h8.8v21.1c3.3-4.4,8-6.6,13-6.6c10.5,0,18.1,8.1,18.1,21.3c0,13.4-7.6,21.3-18.1,21.3
						c-5.2,0-9.9-2.5-13-6.6v5.5H122.6z M141.9,57.1c7,0,11.4-5.6,11.4-13.5c0-7.8-4.5-13.4-11.4-13.4c-4.2,0-8.5,2.4-10.5,5.5v16.1
						C133.4,54.7,137.7,57.1,141.9,57.1z"/>
					<path d="M179.9,34.7c1.8-2.9,4.9-5.2,9.6-5.2c5,0,8.1,2.3,9.9,5.2c0.2,0,7.9,0,8.4,0c-2.9-7.6-9.4-12.4-18.2-12.4
						c-8.8,0-15.7,5.1-18.8,12.4C170.8,34.8,179.9,34.7,179.9,34.7z"/>
					<path d="M209.4,44.3c0-1.4-0.1-2.8-0.3-4.1c0,0-39.9,0-39.9,0c-0.2,1.1-0.3,2.2-0.3,3.4c0,12.9,9,21.3,21.3,21.3
						c6.4,0,12.3-2.1,16.5-6l-4-5.8c-2.9,2.9-7.6,4.5-11.6,4.5c-7.6,0-12.2-5.1-12.9-11.2h31.2V44.3z"/>
					<path d="M214.7,58.5l4-6.3c2.9,2.9,8.5,5.6,13.7,5.6c5.3,0,8.1-2.2,8.1-5.4c0-8-24.5-2.3-24.5-17.9c0-6.6,5.7-12.3,16-12.3
						c6.9,0,12.1,2.4,15.7,5.6l-3.7,6.2c-2.4-2.7-6.9-4.9-12-4.9c-4.6,0-7.5,2.2-7.5,5c0,7.1,24.5,1.8,24.5,17.9
						c0,7.2-6,12.7-16.9,12.7C225.2,64.9,218.9,62.6,214.7,58.5z"/>
					<path d="M285.3,63.9V38.5c0-6.4-3.3-8.4-8.2-8.4c-4.5,0-8.3,2.7-10.4,5.4v28.4h-8.8V23.3h8.8v5.5c2.7-3.2,8-6.5,14.4-6.5
						c8.7,0,13.1,4.7,13.1,13v28.6H285.3z"/>
					<path d="M312.5,48.9c1.2-2.9,4.3-4.6,8.2-4.6c3.8,0,7.6,1.4,9.7,4.2l0,0.5c0,0,8.8,0,8.8,0v-12c0-10.8-7.9-14.6-17-14.6
						c-6.5,0-12.3,2-17.1,6.6l3.7,6.1c3.4-3.5,7.5-5.2,12-5.2c5.5,0,9.5,2.9,9.5,7.6v6c-3-3.4-7.6-5.2-13.2-5.2
						c-6,0-12.6,3.2-13.8,10.7C303.4,48.9,312.5,48.9,312.5,48.9z"/>
					<path d="M330.4,54.2v0.4c-2.1,2.8-5.9,4.2-9.7,4.2c-3.9,0-7-1.7-8.2-4.6c0,0-9,0-9.1,0c1.4,7.1,7.9,10.7,13.8,10.7
						c5.4,0,10.2-1.9,13.2-5.5v4.5h8.8v-9.7C338.6,54.2,331,54.2,330.4,54.2z"/>
					<path d="M348.2,43.6c0-12.3,8.7-21.3,20.9-21.3c8,0,12.7,3.4,15.5,7.2l-5.8,5.3c-2.3-3.2-5.4-4.7-9.3-4.7
						c-7.3,0-12.3,5.5-12.3,13.4c0,7.9,5,13.5,12.3,13.5c3.9,0,7.1-1.7,9.3-4.9l5.8,5.5c-2.9,3.8-7.6,7.2-15.5,7.2
						C356.9,64.9,348.2,55.8,348.2,43.6z"/>
					<path d="M419.4,63.9L407,47.1l-5.7,5.9v10.9h-8.8v-56h8.8v35l17.9-19.6h10.9l-16.8,18.4l17.1,22.2H419.4z"/>
				</g>
			</g>
		</g>
		<g>
			<g id="Shape_1_3_">
				<g>
					<path fill="#3183FF" d="M33.8,46.8c0,0-8.8,2.4-10.9,12.7c0,0-0.4,2.2-0.3,5l5.6,1.3c0,0-2-8.5,5.3-12.7c0,0,4.9-3.2,12.7,0.3
						l7.7-2.1C53.9,51.3,45.9,43.6,33.8,46.8z"/>
				</g>
			</g>
			<g id="Shape_2_3_">
				<g>
					<path fill="#3183FF" d="M58.2,65.1l-5.3,1.3c-1.1,3.7-2.4,4.8-2.4,4.8l5.6,1.3C58.5,68.2,58.2,65.1,58.2,65.1z"/>
				</g>
			</g>
			<g id="Shape_3">
				<g>
					<path fill="#FFFFFF" d="M48.1,73.2L47.7,73l-1.3,1.6l-6.1,0.9l-6.5,8.8c0,0-0.6,0.5,0,0.9l6.3,4.7c0,0,0.5,0.4,0.9,0l6.5-9
						L46.8,75L48.1,73.2z"/>
				</g>
			</g>
			<g id="Ellipse_1">
				<g>
					<path class="st0" d="M44.5,75.7c-0.9,0-1.6,0.7-1.6,1.6c0,0.9,0.7,1.6,1.6,1.6s1.6-0.7,1.6-1.6C46.1,76.4,45.4,75.7,44.5,75.7z
						"/>
				</g>
			</g>
			<g id="Ellipse_1_copy">
				<g>
					<path fill="#FFFFFF" d="M44.5,76.2c-0.6,0-1.1,0.5-1.1,1.1c0,0.6,0.5,1.1,1.1,1.1s1.1-0.5,1.1-1.1C45.7,76.7,45.2,76.2,44.5,76.2z
						"/>
				</g>
			</g>
		</g>
	</g>
</g>
<g id="Cubesnack_xA0_Image_1_">
</g>
<g id="C_xA0_Image_1_">
</g>
<g id="Rounded_Rectangle_1_1_" class="st2">
</g>
<g id="O_xA0_Image_1_">
</g>
</svg>
