<?xml version="1.0" encoding="utf-8"?>
<!-- Generator: Adobe Illustrator 22.1.0, SVG Export Plug-In . SVG Version: 6.00 Build 0)  -->
<svg version="1.0" id="Layer_1" xmlns="http://www.w3.org/2000/svg" xmlns:xlink="http://www.w3.org/1999/xlink" x="0px" y="0px"
	 viewBox="0 0 25.4 25.4" enable-background="new 0 0 25.4 25.4" xml:space="preserve">
<g id="Rounded_Rectangle_18_copy_2">
	<g>
		<path fill-rule="evenodd" clip-rule="evenodd" fill="#FFFFFF" d="M22.8,0H2.7C1.2,0,0.1,1.2,0.1,2.6v20.1c0,1.4,1.2,2.6,2.6,2.6
			h20.1c1.4,0,2.6-1.2,2.6-2.6V2.6C25.4,1.2,24.3,0,22.8,0z"/>
	</g>
</g>
<g>
	<path fill="#526DA4" d="M18.3,7h2V3.5c-0.3,0-1.5-0.2-2.9-0.2c-6.3,0-4.6,7.2-4.9,8.2H9.3v3.9h3.2v9.8h3.9v-9.8h3.1l0.5-3.9h-3.6
		C16.6,9,15.7,7,18.3,7L18.3,7z M18.3,7"/>
</g>
</svg>
