<?xml version="1.0" encoding="utf-8"?>
<!-- Generator: Adobe Illustrator 22.1.0, SVG Export Plug-In . SVG Version: 6.00 Build 0)  -->
<svg version="1.1" id="Layer_1" xmlns="http://www.w3.org/2000/svg" xmlns:xlink="http://www.w3.org/1999/xlink" x="0px" y="0px"
	 viewBox="0 0 1440 800" style="enable-background:new 0 0 1440 800;" xml:space="preserve">
<g>
	<path fill="#404040" d="M1180.2,700.5H260.1c-9,0-16.2-7.3-16.2-16.2V75.9c0-9,7.3-16.2,16.2-16.2h920.1c9,0,16.2,7.3,16.2,16.2v608.3
		C1196.4,693.2,1189.2,700.5,1180.2,700.5z"/>
	<g>
		<path fill="#FFFFFF" d="M290.9,671.8c-9.7,0-17.6-7.9-17.6-17.6V106c0-9.7,7.9-17.6,17.6-17.6h858.5c9.7,0,17.6,7.9,17.6,17.6v548.3
			c0,9.7-7.9,17.6-17.6,17.6H290.9z"/>
		<path fill="#404040" d="M1149.4,89.4c9.1,0,16.6,7.4,16.6,16.6v548.3c0,9.1-7.4,16.6-16.6,16.6H290.9c-9.1,0-16.6-7.4-16.6-16.6V106
			c0-9.1,7.4-16.6,16.6-16.6H1149.4 M1149.4,87.4H290.9c-10.3,0-18.6,8.3-18.6,18.6v548.3c0,10.3,8.3,18.6,18.6,18.6h858.5
			c10.3,0,18.6-8.3,18.6-18.6V106C1168,95.7,1159.7,87.4,1149.4,87.4L1149.4,87.4z"/>
	</g>
	<g>
		<path fill="#B3B3B3" d="M112.5,738.9c-6.2,0-11.2-5-11.2-11.2v-15c0-6.2,5-11.2,11.2-11.2h1215.3c6.2,0,11.2,5,11.2,11.2v15
			c0,6.2-5,11.2-11.2,11.2H112.5z"/>
		<path fill="#404040" d="M1327.8,702.5c5.6,0,10.2,4.6,10.2,10.2v15c0,5.6-4.6,10.2-10.2,10.2H112.5c-5.6,0-10.2-4.6-10.2-10.2v-15
			c0-5.6,4.6-10.2,10.2-10.2H1327.8 M1327.8,700.5H112.5c-6.7,0-12.2,5.5-12.2,12.2v15c0,6.7,5.5,12.2,12.2,12.2h1215.3
			c6.7,0,12.2-5.5,12.2-12.2v-15C1340,705.9,1334.5,700.5,1327.8,700.5L1327.8,700.5z"/>
	</g>
	<g>
		<g>
			<path fill="#404040" d="M856.5,383.3H583.8c-2.5,0-4.6-2-4.6-4.6V227.8c0-32.5,26.5-59,59-59h163.9c32.5,0,59,26.5,59,59v150.9
				C861.1,381.3,859,383.3,856.5,383.3z M588.4,374.2h263.5V227.8c0-27.5-22.4-49.8-49.8-49.8H638.2c-27.5,0-49.8,22.4-49.8,49.8
				V374.2z"/>
		</g>
		<g>
			<path fill="#FFFFFF" d="M566.4,608.2c-29.7,0-53.8-24.1-53.8-53.8V331.1c0-29.7,24.1-53.8,53.8-53.8h307.5
				c29.7,0,53.8,24.1,53.8,53.8v223.3c0,29.7-24.1,53.8-53.8,53.8H566.4z"/>
			<path fill="#404040" d="M873.9,278.4c29,0,52.7,23.6,52.7,52.7v223.3c0,29-23.6,52.7-52.7,52.7H566.4c-29,0-52.7-23.6-52.7-52.7
				V331.1c0-29,23.6-52.7,52.7-52.7H873.9 M873.9,276.1H566.4c-30.4,0-55,24.6-55,55v223.3c0,30.4,24.6,55,55,55h307.5
				c30.4,0,55-24.6,55-55V331.1C928.9,300.7,904.3,276.1,873.9,276.1L873.9,276.1z"/>
		</g>
		<path fill="#404040" d="M776.1,407.8c0-30.9-25.1-56-56-56c-30.9,0-56,25.1-56,56c0,17.5,8,33.1,20.6,43.3l-20.6,92.6h111.9
			l-20.6-92.6C768.1,440.9,776.1,425.3,776.1,407.8z"/>
	</g>
	<g>
		<path fill="#FFFFFF" d="M912.6,435.6c0,0-13.1,35.9-75.9,30c0,0-24.2,130.3,75.9,163.3c98.7-43.4,75.9-163.3,75.9-163.3
			C925.7,471.6,912.6,435.6,912.6,435.6z"/>
		<path fill="#404040" d="M912.6,630c-0.1,0-0.2,0-0.4-0.1c-52.2-17.2-70.3-61.1-76.2-94.9c-6.4-36.5-0.5-69.4-0.4-69.7
			c0.1-0.6,0.6-1,1.2-0.9c17.6,1.7,42.5,0.9,60.6-12.4c10.8-7.9,14.1-16.7,14.1-16.8c0.2-0.5,0.6-0.7,1.1-0.7c0.5,0,0.9,0.3,1.1,0.7
			c0.1,0.3,11.6,29.9,61.3,29.9c4.2,0,8.6-0.2,13.4-0.7c0.6-0.1,1.1,0.3,1.2,0.9c0.1,0.3,5.7,30.6-0.9,65.8
			c-6.1,32.6-24.2,76.1-75.6,98.8C912.9,630,912.8,630,912.6,630z M837.7,466.8c-0.9,5.8-5.1,35.4,0.6,67.9
			c3.7,21.1,10.9,39.3,21.2,54.1c12.8,18.3,30.7,31.4,53,38.8c50.2-22.3,67.9-65,73.9-96.9c5.8-31.2,2-58.4,1.1-63.9
			c-18,1.6-42.9,0.5-61.2-13c-8-5.9-12-12.1-13.7-15.4c-1.7,3.3-5.7,9.5-13.7,15.4C888.7,461.3,869.9,469.7,837.7,466.8z"/>
	</g>
	<g>
		<path fill="#404040" d="M911.7,557.8c-0.3,0-0.5-0.1-0.7-0.3l-22.4-18.7c-0.5-0.4-0.6-1.1-0.1-1.6c0.4-0.5,1.1-0.5,1.6-0.1l21.5,17.9
			l32-41.5c0.4-0.5,1.1-0.6,1.6-0.2c0.5,0.4,0.6,1.1,0.2,1.6l-32.8,42.4c-0.2,0.2-0.5,0.4-0.8,0.4
			C911.8,557.8,911.8,557.8,911.7,557.8z"/>
	</g>
	<g>
		<path fill="#404040" d="M912.7,575.5c-20.2,0-36.7-16.5-36.7-36.7c0-20.2,16.5-36.7,36.7-36.7c4.8,0,9.5,0.9,13.9,2.7
			c0.6,0.2,0.9,0.9,0.6,1.5c-0.2,0.6-0.9,0.9-1.5,0.6c-4.1-1.7-8.5-2.5-13-2.5c-19,0-34.4,15.4-34.4,34.4c0,19,15.4,34.4,34.4,34.4
			c19,0,34.4-15.4,34.4-34.4c0-0.6,0.5-1.1,1.1-1.1s1.1,0.5,1.1,1.1C949.4,559,932.9,575.5,912.7,575.5z"/>
	</g>
</g>
</svg>
