<?xml version="1.0" encoding="utf-8"?>
<!-- Generator: Adobe Illustrator 22.1.0, SVG Export Plug-In . SVG Version: 6.00 Build 0)  -->
<svg version="1.1" xmlns="http://www.w3.org/2000/svg" xmlns:xlink="http://www.w3.org/1999/xlink" x="0px" y="0px"
	 viewBox="0 0 345 747" style="enable-background:new 0 0 345 747;" xml:space="preserve">
<style type="text/css">
	.st0{fill:#191426;}
	.st1{fill:#2E293A;}
</style>
<g id="bg">
	<rect x="-349.7" class="st0" width="1056.5" height="747"/>
</g>
<g id="star">
	<path class="st1" d="M-250.8,112.5h-2.7v-2.7c0-1.1-0.9-2-2-2c-1.1,0-2,0.9-2,2v2.7h-2.7c-1.1,0-2,0.9-2,2c0,1.1,0.9,2,2,2h2.7v2.7
		c0,1.1,0.9,2,2,2c1.1,0,2-0.9,2-2v-2.7h2.7c1.1,0,2-0.9,2-2C-248.8,113.3-249.7,112.5-250.8,112.5z"/>
	<path class="st1" d="M110.3,417.6h-2.1v-2.1c0-0.8-0.7-1.5-1.5-1.5c-0.8,0-1.5,0.7-1.5,1.5v2.1H103c-0.8,0-1.5,0.7-1.5,1.5
		c0,0.8,0.7,1.5,1.5,1.5h2.1v2.1c0,0.8,0.7,1.5,1.5,1.5c0.8,0,1.5-0.7,1.5-1.5v-2.1h2.1c0.8,0,1.5-0.7,1.5-1.5
		C111.9,418.3,111.2,417.6,110.3,417.6z"/>
	<path class="st1" d="M639.7,467.4h-2.1v-2.1c0-0.8-0.7-1.5-1.5-1.5c-0.8,0-1.5,0.7-1.5,1.5v2.1h-2.1c-0.8,0-1.5,0.7-1.5,1.5
		c0,0.8,0.7,1.5,1.5,1.5h2.1v2.1c0,0.8,0.7,1.5,1.5,1.5c0.8,0,1.5-0.7,1.5-1.5v-2.1h2.1c0.8,0,1.5-0.7,1.5-1.5
		C641.2,468.1,640.5,467.4,639.7,467.4z"/>
	<path class="st1" d="M-251.8,271.4h-2.1v-2.1c0-0.8-0.7-1.5-1.5-1.5c-0.8,0-1.5,0.7-1.5,1.5v2.1h-2.1c-0.8,0-1.5,0.7-1.5,1.5
		c0,0.8,0.7,1.5,1.5,1.5h2.1v2.1c0,0.8,0.7,1.5,1.5,1.5c0.8,0,1.5-0.7,1.5-1.5v-2.1h2.1c0.8,0,1.5-0.7,1.5-1.5
		C-250.3,272.1-251,271.4-251.8,271.4z"/>
	<path class="st1" d="M-1.8,300.1h-1.6v-1.6c0-0.6-0.5-1.1-1.1-1.1c-0.6,0-1.1,0.5-1.1,1.1v1.6h-1.6c-0.6,0-1.1,0.5-1.1,1.1
		c0,0.6,0.5,1.1,1.1,1.1h1.6v1.6c0,0.6,0.5,1.1,1.1,1.1c0.6,0,1.1-0.5,1.1-1.1v-1.6h1.6c0.6,0,1.1-0.5,1.1-1.1
		C-0.7,300.6-1.2,300.1-1.8,300.1z"/>
	<path class="st1" d="M30.9,163.6h-1.6V162c0-0.6-0.5-1.1-1.1-1.1c-0.6,0-1.1,0.5-1.1,1.1v1.6h-1.6c-0.6,0-1.1,0.5-1.1,1.1
		c0,0.6,0.5,1.1,1.1,1.1h1.6v1.6c0,0.6,0.5,1.1,1.1,1.1c0.6,0,1.1-0.5,1.1-1.1v-1.6h1.6c0.6,0,1.1-0.5,1.1-1.1
		C32.1,164.1,31.5,163.6,30.9,163.6z"/>
	<path class="st1" d="M617.7,119.9h-2.4v-2.4c0-1-0.8-1.8-1.8-1.8c-1,0-1.8,0.8-1.8,1.8v2.4h-2.4c-1,0-1.8,0.8-1.8,1.8
		c0,1,0.8,1.8,1.8,1.8h2.4v2.4c0,1,0.8,1.8,1.8,1.8c1,0,1.8-0.8,1.8-1.8v-2.4h2.4c1,0,1.8-0.8,1.8-1.8
		C619.5,120.6,618.7,119.9,617.7,119.9z"/>
	<path class="st1" d="M-142.8,323.9h-2.4v-2.4c0-1-0.8-1.8-1.8-1.8c-1,0-1.8,0.8-1.8,1.8v2.4h-2.4c-1,0-1.8,0.8-1.8,1.8
		c0,1,0.8,1.8,1.8,1.8h2.4v2.4c0,1,0.8,1.8,1.8,1.8c1,0,1.8-0.8,1.8-1.8v-2.4h2.4c1,0,1.8-0.8,1.8-1.8
		C-141,324.7-141.8,323.9-142.8,323.9z"/>
	<path class="st1" d="M460.5,644.3h-2.4v-2.4c0-1-0.8-1.8-1.8-1.8c-1,0-1.8,0.8-1.8,1.8v2.4h-2.4c-1,0-1.8,0.8-1.8,1.8
		c0,1,0.8,1.8,1.8,1.8h2.4v2.4c0,1,0.8,1.8,1.8,1.8c1,0,1.8-0.8,1.8-1.8v-2.4h2.4c1,0,1.8-0.8,1.8-1.8
		C462.3,645.1,461.5,644.3,460.5,644.3z"/>
	<path class="st1" d="M-95.9,406.8H-98v-2.1c0-0.8-0.7-1.5-1.5-1.5c-0.8,0-1.5,0.7-1.5,1.5v2.1h-2.1c-0.8,0-1.5,0.7-1.5,1.5
		c0,0.8,0.7,1.5,1.5,1.5h2.1v2.1c0,0.8,0.7,1.5,1.5,1.5c0.8,0,1.5-0.7,1.5-1.5v-2.1h2.1c0.8,0,1.5-0.7,1.5-1.5
		C-94.3,407.5-95,406.8-95.9,406.8z"/>
	<path class="st1" d="M-86.5,84.9h-2.1v-2.1c0-0.8-0.7-1.5-1.5-1.5c-0.8,0-1.5,0.7-1.5,1.5v2.1h-2.1c-0.8,0-1.5,0.7-1.5,1.5
		c0,0.8,0.7,1.5,1.5,1.5h2.1v2.1c0,0.8,0.7,1.5,1.5,1.5c0.8,0,1.5-0.7,1.5-1.5V88h2.1c0.8,0,1.5-0.7,1.5-1.5
		C-84.9,85.6-85.6,84.9-86.5,84.9z"/>
	<path class="st1" d="M610.2,302.3h-1.5v-1.5c0-0.6-0.5-1.1-1.1-1.1c-0.6,0-1.1,0.5-1.1,1.1v1.5h-1.5c-0.6,0-1.1,0.5-1.1,1.1
		c0,0.6,0.5,1.1,1.1,1.1h1.5v1.5c0,0.6,0.5,1.1,1.1,1.1c0.6,0,1.1-0.5,1.1-1.1v-1.5h1.5c0.6,0,1.1-0.5,1.1-1.1
		C611.3,302.8,610.8,302.3,610.2,302.3z"/>
	<path class="st1" d="M306.2,68.6h-1.5v-1.5c0-0.6-0.5-1.1-1.1-1.1s-1.1,0.5-1.1,1.1v1.5H301c-0.6,0-1.1,0.5-1.1,1.1
		c0,0.6,0.5,1.1,1.1,1.1h1.5v1.5c0,0.6,0.5,1.1,1.1,1.1s1.1-0.5,1.1-1.1v-1.5h1.5c0.6,0,1.1-0.5,1.1-1.1
		C307.4,69.1,306.9,68.6,306.2,68.6z"/>
	<path class="st1" d="M330.3,372.4h-1.5v-1.5c0-0.6-0.5-1.1-1.1-1.1c-0.6,0-1.1,0.5-1.1,1.1v1.5H325c-0.6,0-1.1,0.5-1.1,1.1
		c0,0.6,0.5,1.1,1.1,1.1h1.5v1.5c0,0.6,0.5,1.1,1.1,1.1c0.6,0,1.1-0.5,1.1-1.1v-1.5h1.5c0.6,0,1.1-0.5,1.1-1.1
		C331.4,372.9,330.9,372.4,330.3,372.4z"/>
	<path class="st1" d="M-227.8,644.3h-2.4V642c0-0.9-0.8-1.7-1.7-1.7s-1.7,0.8-1.7,1.7v2.4h-2.4c-0.9,0-1.7,0.8-1.7,1.7
		c0,0.9,0.8,1.7,1.7,1.7h2.4v2.4c0,0.9,0.8,1.7,1.7,1.7s1.7-0.8,1.7-1.7v-2.4h2.4c0.9,0,1.7-0.8,1.7-1.7
		C-226.1,645.1-226.8,644.3-227.8,644.3z"/>
	<path class="st1" d="M448.5,107.4h-2.6v-2.6c0-1-0.8-1.9-1.9-1.9c-1,0-1.9,0.8-1.9,1.9v2.6h-2.6c-1,0-1.9,0.8-1.9,1.9
		c0,1,0.8,1.9,1.9,1.9h2.6v2.6c0,1,0.8,1.9,1.9,1.9c1,0,1.9-0.8,1.9-1.9v-2.6h2.6c1,0,1.9-0.8,1.9-1.9
		C450.4,108.2,449.5,107.4,448.5,107.4z"/>
	<path class="st1" d="M-53.6,625h-2.6v-2.6c0-1-0.8-1.9-1.9-1.9c-1,0-1.9,0.8-1.9,1.9v2.6h-2.6c-1,0-1.9,0.8-1.9,1.9
		c0,1,0.8,1.9,1.9,1.9h2.6v2.6c0,1,0.8,1.9,1.9,1.9c1,0,1.9-0.8,1.9-1.9v-2.6h2.6c1,0,1.9-0.8,1.9-1.9
		C-51.7,625.9-52.6,625-53.6,625z"/>
	<path class="st1" d="M332.4,510.4h-2.6v-2.6c0-1-0.8-1.9-1.9-1.9c-1,0-1.9,0.8-1.9,1.9v2.6h-2.6c-1,0-1.9,0.8-1.9,1.9
		c0,1,0.8,1.9,1.9,1.9h2.6v2.6c0,1,0.8,1.9,1.9,1.9c1,0,1.9-0.8,1.9-1.9v-2.6h2.6c1,0,1.9-0.8,1.9-1.9
		C334.3,511.3,333.5,510.4,332.4,510.4z"/>
	<path class="st1" d="M-256,429.3h-2.6v-2.6c0-1-0.8-1.9-1.9-1.9c-1,0-1.9,0.8-1.9,1.9v2.6h-2.6c-1,0-1.9,0.8-1.9,1.9
		c0,1,0.8,1.9,1.9,1.9h2.6v2.6c0,1,0.8,1.9,1.9,1.9c1,0,1.9-0.8,1.9-1.9v-2.6h2.6c1,0,1.9-0.8,1.9-1.9
		C-254.1,430.2-254.9,429.3-256,429.3z"/>
	<path class="st1" d="M98.8,218.4h-2.6v-2.6c0-1-0.8-1.9-1.9-1.9c-1,0-1.9,0.8-1.9,1.9v2.6h-2.6c-1,0-1.9,0.8-1.9,1.9
		c0,1,0.8,1.9,1.9,1.9h2.6v2.6c0,1,0.8,1.9,1.9,1.9c1,0,1.9-0.8,1.9-1.9v-2.6h2.6c1,0,1.9-0.8,1.9-1.9
		C100.7,219.2,99.9,218.4,98.8,218.4z"/>
	<path class="st1" d="M281.3,693.8h-2.7v-2.7c0-1.1-0.9-2-2-2c-1.1,0-2,0.9-2,2v2.7h-2.7c-1.1,0-2,0.9-2,2c0,1.1,0.9,2,2,2h2.7v2.7
		c0,1.1,0.9,2,2,2c1.1,0,2-0.9,2-2v-2.7h2.7c1.1,0,2-0.9,2-2C283.3,694.7,282.4,693.8,281.3,693.8z"/>
	<path class="st1" d="M111.4,513h-2.7v-2.7c0-1.1-0.9-2-2-2c-1.1,0-2,0.9-2,2v2.7H102c-1.1,0-2,0.9-2,2c0,1.1,0.9,2,2,2h2.7v2.7
		c0,1.1,0.9,2,2,2c1.1,0,2-0.9,2-2V517h2.7c1.1,0,2-0.9,2-2C113.3,513.9,112.5,513,111.4,513z"/>
	<circle class="st1" cx="607.5" cy="591.1" r="7.6"/>
	<circle class="st1" cx="-66.8" cy="215.5" r="4.7"/>
	<circle class="st1" cx="-206.5" cy="194.7" r="4.8"/>
	<circle class="st1" cx="20.3" cy="567.9" r="4.8"/>
	<path class="st1" d="M94.3,69.7c0,2.8-2.3,5.1-5.1,5.1c-2.8,0-5.1-2.3-5.1-5.1c0-2.8,2.3-5.1,5.1-5.1
		C92.1,64.6,94.3,66.9,94.3,69.7z"/>
	<path class="st1" d="M90.6,660.1c0,2.8-2.3,5.1-5.1,5.1c-2.8,0-5.1-2.3-5.1-5.1c0-2.8,2.3-5.1,5.1-5.1
		C88.3,655,90.6,657.2,90.6,660.1z"/>
	<path class="st1" d="M208,336.7c0,2.8-2.3,5.1-5.1,5.1c-2.8,0-5.1-2.3-5.1-5.1c0-2.8,2.3-5.1,5.1-5.1
		C205.7,331.6,208,333.8,208,336.7z"/>
	<path class="st1" d="M-200.1,561.6c0,3.5-2.8,6.4-6.4,6.4c-3.5,0-6.4-2.8-6.4-6.4s2.8-6.4,6.4-6.4
		C-203,555.2-200.1,558.1-200.1,561.6z"/>
	<path class="st1" d="M257.9,557c0,3.5-2.8,6.4-6.4,6.4c-3.5,0-6.4-2.8-6.4-6.4c0-3.5,2.8-6.4,6.4-6.4
		C255,550.7,257.9,553.5,257.9,557z"/>
	<path class="st1" d="M530,200.9c0,3.4-2.8,6.2-6.2,6.2c-3.4,0-6.2-2.8-6.2-6.2c0-3.4,2.8-6.2,6.2-6.2
		C527.3,194.7,530,197.5,530,200.9z"/>
	<path class="st1" d="M184.7,168.6c0,3.4-2.8,6.2-6.2,6.2c-3.4,0-6.2-2.8-6.2-6.2c0-3.4,2.8-6.2,6.2-6.2
		C182,162.4,184.7,165.1,184.7,168.6z"/>
	<circle class="st1" cx="578.3" cy="416.7" r="7.6"/>
	<path class="st1" d="M512.1,507.5h-2.4v-2.4c0-0.9-0.8-1.7-1.7-1.7s-1.7,0.8-1.7,1.7v2.4H504c-0.9,0-1.7,0.8-1.7,1.7
		c0,0.9,0.8,1.7,1.7,1.7h2.4v2.4c0,0.9,0.8,1.7,1.7,1.7s1.7-0.8,1.7-1.7v-2.4h2.4c0.9,0,1.7-0.8,1.7-1.7
		C513.8,508.2,513.1,507.5,512.1,507.5z"/>
</g>
</svg>
