<?xml version="1.0" encoding="utf-8"?>
<!-- Generator: Adobe Illustrator 22.1.0, SVG Export Plug-In . SVG Version: 6.00 Build 0)  -->
<svg version="1.1" id="Layer_1" xmlns="http://www.w3.org/2000/svg" xmlns:xlink="http://www.w3.org/1999/xlink" x="0px" y="0px"
	 viewBox="0 0 1440 858" style="enable-background:new 0 0 1440 858;" xml:space="preserve">
<style type="text/css">
	.st0{opacity:0.24;fill:url(#SVGID_1_);}
	.st1{fill:#C49222;}
	.st2{fill:#F7A60F;}
	.st3{fill:#FFD96E;}
	.st4{fill:#FFDE55;}
	.st5{fill:#FFCC33;}
	.st6{fill:#FDD248;}
	.st7{fill:#FFFFFF;}
	.st8{fill:#D8A527;}
	.st9{fill:#BCBEC0;}
	.st10{fill:#B3B3B3;}
	.st11{fill:#D1D3D4;}
	.st12{opacity:0.24;fill:url(#SVGID_2_);}
	.st13{fill:#A2B6CD;}
	.st14{fill:#6D8192;}
	.st15{fill:#DEE9F6;}
	.st16{fill:#604B8B;}
	.st17{opacity:0.32;fill:#6D8192;}
	.st18{fill:#8AA8FF;}
	.st19{fill:url(#SVGID_3_);}
	.st20{fill:#C1D7FF;}
	.st21{fill:#E6E6E6;}
	.st22{fill:#5262CE;}
	.st23{fill:#262A95;}
	.st24{fill:#F2F2F2;}
	.st25{fill:#DB8D0F;}
	.st26{fill:#FFEEC5;}
	.st27{fill:#EDC148;}
	.st28{enable-background:new    ;}
	.st29{opacity:0.16;fill:url(#SVGID_4_);}
	.st30{fill:#243AA9;}
	.st31{fill:#428FE2;}
	.st32{fill:#1A4DA8;}
	.st33{opacity:0.47;fill:url(#SVGID_5_);}
	.st34{fill:#227BCF;}
</style>
<g>
	<g>
		<linearGradient id="SVGID_1_" gradientUnits="userSpaceOnUse" x1="349.3438" y1="329.0829" x2="468.755" y2="329.0829">
			<stop  offset="0" style="stop-color:#3BBFFF"/>
			<stop  offset="0.2913" style="stop-color:#2F93F0"/>
			<stop  offset="0.6027" style="stop-color:#256BE2"/>
			<stop  offset="0.8498" style="stop-color:#1E52D9"/>
			<stop  offset="1" style="stop-color:#1C49D6"/>
		</linearGradient>
		<path class="st0" d="M468.8,324l-72.3,41.7c-5,2.9-11.2,3-16.4,0.2l-26.3-14.3c-2.8-1.5-4.5-4.4-4.5-7.5c0-3.1,1.6-6.1,4.3-7.6
			l79.4-46.2L468.8,324z"/>
		<g>
			<path class="st1" d="M403.1,182.3l83.8-48.4c18.1-10.4,32.8-2.5,32.8,17.7v69.6c0,20.2-14.7,45.1-32.8,55.5l-80.1,46.2l4.5,22.8
				l-30.2-17.4l0,0c-6.7-2.9-10.8-10.1-10.8-20.9v-69.6C370.3,217.6,385,192.7,403.1,182.3z"/>
			<path class="st2" d="M416.5,217.7l-5,102.5l-4.7,2.7l3.7,18.4l-0.2,3.8l-29.1-16.8l0,0c-6.7-2.9-10.8-10.1-10.8-20.9v-69.6
				c0-11.7,4.9-25,12.6-36.2L416.5,217.7z"/>
			<path class="st3" d="M403.1,182.3l83.8-48.4c18.1-10.4,32.8-2.5,32.8,17.7v9.4l-92.8,76.8l-48.7-28.2
				C384.1,198.2,393.1,188,403.1,182.3z"/>
			<polygon class="st4" points="511.5,132.1 542.1,149.6 538.3,163.3 521.3,168.2 519.6,167.8 519.6,151.6 			"/>
			<g>
				<path class="st5" d="M402.3,325.7c0,20.2,14.7,28.1,32.8,17.7l83.8-48.4c18.1-10.4,32.8-35.3,32.8-55.5v-69.6
					c0-20.2-14.7-28.1-32.8-17.7l-83.8,48.4c-18.1,10.4-32.8,35.3-32.8,55.5V325.7z"/>
				<path class="st6" d="M518.9,286.7c14.1-8.1,25.5-27.4,25.5-43v-69.6c0-15.6-11.5-21.6-25.5-13.5l-83.8,48.4
					c-14.1,8.1-25.5,27.4-25.5,43v69.6c0,15.6,11.5,21.6,25.5,13.5L518.9,286.7z"/>
				<g>
					<path class="st7" d="M536.2,213.3c2.7-1.5,4.8-5.3,4.8-8.3v-17.6c0-20.1-14.2-28.3-31.6-18.3c-2.7,1.5-4.8,5.3-4.8,8.3
						c0,3.1,2.2,4.3,4.8,2.8c12.1-7,22-1.3,22,12.7v17.6C531.4,213.5,533.6,214.8,536.2,213.3z"/>
				</g>
				<g>
					<path class="st7" d="M536.2,254.8c2.7-1.5,4.8-5.3,4.8-8.3V232c0-3.1-2.2-4.3-4.8-2.8c-2.7,1.5-4.8,5.3-4.8,8.3V252
						C531.4,255.1,533.6,256.3,536.2,254.8z"/>
				</g>
				<g>
					<path class="st7" d="M432,332.5l6.4-3.7c2.7-1.5,4.8-5.3,4.8-8.3c0-3.1-2.2-4.3-4.8-2.8l-6.4,3.7c-5.3,3-9.5,0.6-9.5-5.5v-8.3
						c0-3.1-2.2-4.3-4.8-2.8c-2.7,1.5-4.8,5.3-4.8,8.3v8.3C412.9,333.6,421.5,338.6,432,332.5z"/>
				</g>
				<path class="st8" d="M463.4,276.8l9.3-27.7c-2.9-0.1-4.8-2.5-4.8-6.5c0-5.8,4.1-12.9,9.2-15.9c5.1-2.9,9.2-0.6,9.2,5.3
					c0,4-2,8.7-4.8,12.1l9.3,17L463.4,276.8z"/>
				<g>
					<path class="st7" d="M477,229.2c-4.7,2.7-8.5,9-9.1,14.6c0-0.4-0.1-0.8-0.1-1.2c0-5.8,4.1-12.9,9.2-15.9
						c5.1-2.9,9.2-0.6,9.2,5.3c0,0.4,0,0.9-0.1,1.3C485.5,228.3,481.7,226.5,477,229.2z"/>
				</g>
				<polygon class="st1" points="490.1,260.2 464,275.2 463.4,276.8 490.6,261.1 				"/>
			</g>
			<g>
				<g>
					<path class="st9" d="M499.7,144.4l14.5-8.3V84.5c0-26.8-18.9-37.8-42.2-24.3L437.8,80c-23.2,13.4-42.2,46.2-42.2,73v49.6
						l14.5-8.3v-49.6c0-17.6,12.4-39.2,27.7-48L472,76.9c15.3-8.8,27.7-1.6,27.7,16V144.4z"/>
				</g>
				<path class="st10" d="M472,60.2L437.8,80c-23.2,13.4-42.2,46.2-42.2,73v49.6l12.7,7.3l0-14.6l1.8-1l3.7-48.6
					c0-17.6,11.1-31.7,24-49L472,76.9c9.5-5.5,17.9-4.8,22.9,0.8l12.5-15.7l8.6,3.5C502.8,56,489.7,48.8,472,60.2z"/>
				<g>
					<path class="st11" d="M512.4,151.7l14.5-8.3V91.8c0-26.8-18.9-37.8-42.2-24.3l-34.2,19.7c-23.2,13.4-42.2,46.2-42.2,73v49.6
						l14.5-8.3v-49.6c0-17.6,12.4-39.2,27.7-48l34.2-19.7c15.3-8.8,27.7-1.6,27.7,16V151.7z"/>
				</g>
				<g>
					<path class="st9" d="M517.2,148.9l4.8-2.8V94.6c0-23.8-16.7-33.4-37.3-21.6l-34.2,19.7c-20.6,11.9-37.3,40.9-37.3,64.7v49.6
						l4.8-2.8v-49.6c0-20.7,14.6-46,32.5-56.3l34.2-19.7c17.9-10.4,32.5-1.9,32.5,18.8V148.9z"/>
				</g>
				<polygon class="st9" points="512.4,151.7 499.7,144.4 499.7,131.3 512.4,129 				"/>
			</g>
		</g>
	</g>
	<g>
		<g>
			
				<linearGradient id="SVGID_2_" gradientUnits="userSpaceOnUse" x1="162.0993" y1="576.1358" x2="1289.6003" y2="576.1358" gradientTransform="matrix(1 9.200000e-03 -9.200000e-03 1 14.9198 -34.0597)">
				<stop  offset="0" style="stop-color:#3BBFFF"/>
				<stop  offset="0.2913" style="stop-color:#2F93F0"/>
				<stop  offset="0.6027" style="stop-color:#256BE2"/>
				<stop  offset="0.8498" style="stop-color:#1E52D9"/>
				<stop  offset="1" style="stop-color:#1C49D6"/>
			</linearGradient>
			<path class="st12" d="M1251.8,321.3l45.6,29.1c2.3,1.5,3.7,4.1,3.6,6.9c-0.1,2.8-1.6,5.3-4,6.7L567.4,776.1
				c-7.8,4.4-17.3,4.2-24.9-0.5l-367-225.9c-2.5-1.5-3.9-4.2-3.8-7.1s1.8-5.5,4.4-6.7l44-21.3l437.2,77.3L1251.8,321.3z"/>
			<g>
				<g>
					<g>
						<polygon class="st13" points="1251.6,339.6 1252,300.5 1211.1,323.2 1234.2,349.9 						"/>
						<polygon class="st13" points="220.4,494.2 220,536.6 240.5,533.5 248.6,507.6 						"/>
						<path class="st13" d="M528.9,726.4L231,550.7c-16.2-9.6-14.2-25.8,4.5-36.4l644.2-364.1c18.7-10.5,46.9-11.4,63.1-1.8
							l297.9,175.7c16.2,9.6,14.2,25.8-4.5,36.4L592,724.6C573.3,735.1,545.1,735.9,528.9,726.4z"/>
						<path class="st14" d="M392.6,636.3l-26.6-15.7c-4.8-2.8-8.6-10.3-8.6-16.7l0,0c0.1-6.4,4-9.3,8.8-6.5l26.6,15.7
							c4.8,2.8,8.6,10.3,8.6,16.7v0C401.3,636.2,397.4,639.1,392.6,636.3z"/>
						<g>
							<path class="st7" d="M529.2,686.7L231.3,511c-16.2-9.6-14.2-25.8,4.5-36.4L880,110.5c18.7-10.5,46.9-11.4,63.1-1.8
								l297.9,175.7c16.2,9.6,14.2,25.8-4.5,36.4L592.4,684.9C573.7,695.4,545.4,696.2,529.2,686.7z"/>
							<path class="st15" d="M525.6,689.5L227.7,513.9c-16.2-9.6-14.2-25.8,4.5-36.4l644.2-364.1c18.7-10.5,46.9-11.4,63.1-1.8
								l297.9,175.7c16.2,9.6,14.2,25.8-4.5,36.4L588.7,687.7C570,698.3,541.8,699.1,525.6,689.5z"/>
							<polygon class="st16" points="619.4,669.6 261.3,460.2 834.5,136.2 1191.1,346.5 							"/>
							<path class="st13" d="M1097,254.6l-105.3-62.1c-2.3-1.4-2-3.8,0.7-5.3l0,0c2.7-1.5,6.9-1.7,9.2-0.3l105.3,62.1
								c2.3,1.4,2,3.8-0.7,5.3l0,0C1103.5,255.8,1099.3,256,1097,254.6z"/>
						</g>
						<g>
							<path class="st14" d="M1047.1,461.5l-52,29.4c-4.3,2.4-7.8-0.2-7.7-5.9l0,0c0.1-5.7,3.6-12.3,7.9-14.8l52-29.4
								c4.3-2.4,7.8,0.2,7.7,5.9l0,0C1055,452.5,1051.4,459.1,1047.1,461.5z"/>
							<path class="st14" d="M1190.9,380.2l-100.3,56.7c-4.3,2.4-7.8-0.2-7.7-5.9l0,0c0.1-5.7,3.6-12.3,7.9-14.8l100.3-56.7
								c4.3-2.4,7.8,0.2,7.7,5.9v0C1198.8,371.2,1195.3,377.8,1190.9,380.2z"/>
						</g>
					</g>
				</g>
				<polygon class="st17" points="1191.2,346.3 934.8,195.1 502.3,599.5 619.4,669.6 				"/>
			</g>
		</g>
		<g>
			<polygon class="st7" points="673.8,616.3 360.8,431.7 795.2,186.2 1108.2,370.8 			"/>
			<polygon class="st18" points="1047.5,405.1 734.4,220.5 795.2,186.2 1108.2,370.8 			"/>
			<polygon class="st18" points="1047.5,405.1 734.4,220.5 745.3,214.4 1058.3,399 			"/>
			<path class="st7" d="M1037,346.2c-3.7,2.1-9.7,2-13.3-0.1c-3.7-2.2-3.6-5.6,0.1-7.7c3.7-2.1,9.7-2,13.3,0.1
				C1040.8,340.6,1040.7,344.1,1037,346.2z"/>
			<path class="st7" d="M1061.2,360.4c-3.7,2.1-9.7,2-13.3-0.1c-3.7-2.2-3.6-5.6,0.1-7.7c3.7-2.1,9.7-2,13.3,0.1
				C1064.9,354.9,1064.9,358.3,1061.2,360.4z"/>
			<path class="st7" d="M1085.3,374.7c-3.7,2.1-9.7,2-13.3-0.1c-3.7-2.2-3.6-5.6,0.1-7.7c3.7-2.1,9.7-2,13.3,0.1
				C1089.1,369.1,1089,372.6,1085.3,374.7z"/>
			
				<linearGradient id="SVGID_3_" gradientUnits="userSpaceOnUse" x1="2440.5649" y1="1614.3989" x2="2646.3853" y2="1614.3989" gradientTransform="matrix(0.8614 0.5079 -1.5026 0.2749 811.324 -1242.8604)">
				<stop  offset="0" style="stop-color:#775CA7"/>
				<stop  offset="1" style="stop-color:#57A0D7"/>
			</linearGradient>
			<path class="st19" d="M613.4,544.6l-125.9-74.2c-12.3-7.2-10.6-19.7,3.7-27.8h0c14.3-8.1,35.9-8.8,48.2-1.6l125.9,74.2
				c12.3,7.2,10.6,19.7-3.7,27.8h0C647.3,551.1,625.7,551.8,613.4,544.6z"/>
			<polygon class="st20" points="935.4,436.2 677.7,284.3 714.5,263.5 972.2,415.4 			"/>
			<polygon class="st21" points="510.7,396.2 495.6,387.2 510.9,378.6 526,387.5 			"/>
			<polygon class="st21" points="549.3,418.9 534.2,410 549.5,401.3 564.7,410.3 			"/>
		</g>
		<g>
			<path class="st20" d="M840.4,503.8L588.8,358.6c-3.5-2-3-5.5,1-7.9l29.3-16.9c4-2.3,10.1-2.6,13.6-0.6l251.6,145.2
				c3.5,2,3,5.5-1,7.9L854,503.2C850,505.6,843.9,505.8,840.4,503.8z"/>
			<path class="st22" d="M886.7,436.1l-11.9,5.8l-242-139.7c-3.5-2-9.6-1.8-13.6,0.6l-18.8,10.8l-0.2-1l-13.8-2.5l0.1,13.8l0,0
				c-0.1,1.3,0.7,2.6,2.3,3.6l251.6,145.2c3.5,2,9.6,1.8,13.6-0.6l29.3-16.9c2.5-1.4,3.6-3.3,3.3-5l0.1,0V436.1z"/>
			<path class="st20" d="M840.4,458.6L588.8,313.3c-3.5-2-3-5.5,1-7.9l29.3-16.9c4-2.3,10.1-2.6,13.6-0.6l251.6,145.2
				c3.5,2,3,5.5-1,7.9L854,458C850,460.3,843.9,460.6,840.4,458.6z"/>
			<polygon class="st7" points="843.5,450.2 603.3,311.5 629.6,296.3 869.8,435 			"/>
			<polygon class="st22" points="867.4,436.4 627.2,297.7 629.6,296.3 869.8,435 			"/>
			<g>
				<g>
					<path class="st23" d="M640.8,317.5l-6.8-1.9l-1.5,4.2l-4.9-0.5l0.9-4.1l-7.1,0.5l-0.9-2.8l7.3-0.8l-3.2-3.9l4.7-1.4l3.5,3.8
						l5.2-3l3.8,2.2l-5.1,3l6.6,2L640.8,317.5z"/>
				</g>
				<g>
					<path class="st23" d="M664.4,331.1l-6.8-1.9l-1.5,4.2l-4.9-0.5l0.9-4.1l-7.1,0.5l-0.9-2.8l7.3-0.8l-3.2-3.9l4.7-1.4l3.5,3.8
						l5.2-3l3.8,2.2l-5.1,3l6.6,2L664.4,331.1z"/>
				</g>
				<g>
					<path class="st23" d="M687.9,344.7l-6.8-1.9l-1.5,4.2l-4.9-0.5l0.9-4.1l-7.1,0.5l-0.9-2.8l7.3-0.8l-3.2-3.9l4.7-1.4l3.5,3.8
						l5.2-3l3.8,2.2l-5.1,3l6.6,2L687.9,344.7z"/>
				</g>
				<g>
					<path class="st23" d="M711.5,358.3l-6.8-1.9l-1.5,4.2l-4.9-0.5l0.9-4.1l-7.1,0.5l-0.9-2.8l7.3-0.8l-3.2-3.9l4.7-1.4l3.5,3.8
						l5.2-3l3.8,2.2l-5.1,3l6.6,2L711.5,358.3z"/>
				</g>
			</g>
		</g>
		<g>
			<path class="st20" d="M771.4,547.9L519.9,402.7c-3.5-2-3-5.5,1-7.9l29.3-16.9c4-2.3,10.1-2.6,13.6-0.6l251.6,145.2
				c3.5,2,3,5.5-1,7.9L785,547.4C781,549.7,774.9,550,771.4,547.9z"/>
			<path class="st22" d="M817.7,480.2l-11.9,5.8l-242-139.7c-3.5-2-9.6-1.8-13.6,0.6l-18.8,10.8l-0.2-1l-13.8-2.5l0.1,13.8l0,0
				c-0.1,1.3,0.7,2.6,2.3,3.6l251.6,145.2c3.5,2,9.6,1.8,13.6-0.6l29.3-16.9c2.5-1.4,3.6-3.3,3.3-5l0.1,0V480.2z"/>
			<path class="st20" d="M771.4,502.7L519.9,357.5c-3.5-2-3-5.5,1-7.9l29.3-16.9c4-2.3,10.1-2.6,13.6-0.6l251.6,145.2
				c3.5,2,3,5.5-1,7.9L785,502.1C781,504.5,774.9,504.7,771.4,502.7z"/>
			<polygon class="st7" points="774.5,494.4 534.3,355.7 560.7,340.5 800.9,479.1 			"/>
			<polygon class="st22" points="798.5,480.5 558.3,341.9 560.7,340.5 800.9,479.1 			"/>
			<g>
				<g>
					<path class="st23" d="M571.9,361.6l-6.8-1.9l-1.5,4.2l-4.9-0.5l0.9-4.1l-7.1,0.5l-0.9-2.8l7.3-0.8l-3.2-3.9l4.7-1.4l3.5,3.8
						l5.2-3l3.8,2.2l-5.1,3l6.6,2L571.9,361.6z"/>
				</g>
				<g>
					<path class="st23" d="M595.4,375.2l-6.8-1.9l-1.5,4.2l-4.9-0.5l0.9-4.1l-7.1,0.5l-0.9-2.8l7.3-0.8l-3.2-3.9l4.7-1.4l3.5,3.8
						l5.2-3l3.8,2.2l-5.1,3l6.6,2L595.4,375.2z"/>
				</g>
				<g>
					<path class="st23" d="M619,388.8l-6.8-1.9l-1.5,4.2l-4.9-0.5l0.9-4.1l-7.1,0.5l-0.9-2.8l7.3-0.8l-3.2-3.9l4.7-1.4l3.5,3.8
						l5.2-3l3.8,2.2l-5.1,3l6.6,2L619,388.8z"/>
				</g>
				<g>
					<path class="st23" d="M642.5,402.4l-6.8-1.9l-1.5,4.2l-4.9-0.5l0.9-4.1l-7.1,0.5l-0.9-2.8l7.3-0.8l-3.2-3.9l4.7-1.4l3.5,3.8
						l5.2-3l3.8,2.2l-5.1,3l6.6,2L642.5,402.4z"/>
				</g>
				<g>
					<path class="st23" d="M664.6,414.5l-6.8-1.9l-1.5,4.2l-4.9-0.5l0.9-4.1l-7.1,0.5l-0.9-2.8l7.3-0.8l-3.2-3.9l4.7-1.4l3.5,3.8
						l5.2-3l3.8,2.2l-5.1,3l6.6,2L664.6,414.5z"/>
				</g>
				<g>
					<path class="st23" d="M686.6,427.8l-6.8-1.9l-1.5,4.2l-4.9-0.5l0.9-4.1l-7.1,0.5l-0.9-2.8l7.3-0.8l-3.2-3.9l4.7-1.4l3.5,3.8
						l5.2-3l3.8,2.2l-5.1,3l6.6,2L686.6,427.8z"/>
				</g>
			</g>
		</g>
	</g>
	<g>
		<path class="st24" d="M1153,576c-0.2,0.1-162.2,93.3-220.8,127l-4.5-2.6l-101.2,60.1l52.2,30.1L980,730.6l-4.7-2.7
			c69.9-40.2,201.7-116.1,201.7-116.1C1192,605,1171.3,562.9,1153,576z"/>
		<g>
			<polygon class="st2" points="1114.2,542.4 1114.2,583.8 1124,578.1 1124,572 1134,566.3 1134,572.3 1144,566.6 1144,561 
				1153.9,555.2 1153.9,560.8 1159.8,557.4 1159.8,516 			"/>
			<polygon class="st25" points="1114.2,583.8 1103,577.3 1103,555 1114.8,548 			"/>
			<path class="st6" d="M1165,524.4c15-6.8-5.6-48.8-23.9-35.8c-0.2,0.1-241.4,138.9-241.6,139c-17.5,7.9,5.4,48.7,21.5,37.2
				C920.9,664.9,1165,524.4,1165,524.4z"/>
			<polygon class="st25" points="1134,572.3 1128.8,569.3 1134,566.3 			"/>
			<polygon class="st25" points="1153.9,560.8 1148.7,558.2 1153.9,555.2 			"/>
			<polygon class="st25" points="1159.8,530.4 1114.6,556.8 1114.7,553.4 1160.1,527.3 			"/>
			<path class="st26" d="M894.9,648l266.9-154.1c-2-2.4-4.3-4.4-6.8-5.9l-262,151.3C893.2,642.1,893.8,645.1,894.9,648z"/>
			<path class="st27" d="M1168.9,507.1L903.2,661c1.4,1.4,2.8,2.5,4.3,3.5L1170,512.1C1169.8,510.5,1169.4,508.8,1168.9,507.1z"/>
			<g>
				<g class="st28">
					<g>
						<g>
							<path class="st2" d="M860.3,724.8l-25.6-13.2c4.9,2.5,10.6,3.5,16.9,2.6l25.6,13.2C870.9,728.2,865.1,727.3,860.3,724.8z"/>
						</g>
					</g>
					<g>
						<path class="st25" d="M878.4,626.2l25.6,13.2c11.3,5.8,18,19.9,16,37.4c-2.8,25-22,47.7-43,50.6l-25.6-13.2
							c20.9-2.9,40.2-25.6,43-50.6C896.4,646.1,889.8,632,878.4,626.2z"/>
					</g>
					<g>
						<path class="st6" d="M888.4,606.8L914,620c-7.1-3.6-15.4-5.1-24.5-3.8L863.9,603C873,601.8,881.3,603.2,888.4,606.8z"/>
					</g>
					<g>
						<path class="st2" d="M850.3,744.1L824.7,731c-16.5-8.5-26.1-28.9-23.3-54.3c4-36.4,32-69.3,62.5-73.6l25.6,13.2
							c-30.5,4.3-58.4,37.2-62.5,73.6C824.2,715.3,833.8,735.7,850.3,744.1z"/>
					</g>
					<g>
						<g>
							<path class="st6" d="M889.5,616.2c30.5-4.3,51.9,21.7,47.8,58.1c-4,36.4-32,69.3-62.5,73.6c-30.5,4.3-51.9-21.7-47.8-58.1
								C831,653.4,859,620.5,889.5,616.2z M877.1,727.4c20.9-2.9,40.2-25.6,43-50.6c2.8-25-12-42.9-32.9-40
								c-20.9,2.9-40.2,25.6-43,50.6C841.5,712.4,856.2,730.3,877.1,727.4L877.1,727.4z"/>
						</g>
					</g>
				</g>
			</g>
		</g>
	</g>
	<g>
		<linearGradient id="SVGID_4_" gradientUnits="userSpaceOnUse" x1="1143.3339" y1="341.8941" x2="1335" y2="341.8941">
			<stop  offset="0" style="stop-color:#3BBFFF"/>
			<stop  offset="0.2913" style="stop-color:#2F93F0"/>
			<stop  offset="0.6027" style="stop-color:#256BE2"/>
			<stop  offset="0.8498" style="stop-color:#1E52D9"/>
			<stop  offset="1" style="stop-color:#1C49D6"/>
		</linearGradient>
		<path class="st29" d="M1332.6,354.9c-22.7-20.1-25.3-34.6-23.5-43.3c0.6-2.8-1.1-5.6-4.6-7.6c0,0,0,0,0,0c-3.5-2-8.3-3-13.2-2.6
			c-15,1-40.1-0.5-74.9-13.6l-3.7-1.4l-3.7,1.5c-0.9,0.4-22.5,9.2-40.8,26.4c-10.7,10.1-18.1,21-21.9,32.4
			c-4.7,14.2-3.9,29.3,2.6,44.7l0.4,1l2.7,1.5l1.8,0.3c26.7,3.7,52.7,4.2,77.3,1.4c19.7-2.2,38.5-6.5,55.9-12.8
			c29.6-10.6,44.8-23.2,45.4-23.7l2.5-2.1L1332.6,354.9z"/>
		<g>
			<polygon class="st30" points="1307.1,328.3 1307.1,348.7 1294.7,355.5 1286.4,337.9 			"/>
			<path class="st30" d="M1304.5,346.4c-24.5-21.7-27.3-37.4-25.4-46.7c0.6-3-1.2-6-4.9-8.2c0,0,0,0,0,0c-3.8-2.2-8.9-3.2-14.2-2.9
				c-16.2,1.1-43.3-0.5-80.9-14.7l-4-1.5l-3.9,1.6c-1,0.4-24.3,9.9-44.1,28.5c-11.6,10.9-19.5,22.7-23.6,35
				c-5.1,15.4-4.2,31.6,2.8,48.3l0.5,1.1l2.9,1.7l2,0.3c28.9,4,57,4.5,83.5,1.6c21.3-2.4,41.6-7,60.4-13.8c32-11.5,48.3-25,49-25.6
				l2.7-2.3L1304.5,346.4z"/>
			<path class="st31" d="M1115.5,363c122.1,17,185.4-36.2,185.4-36.2c-26.1-23.1-28.4-40-26.5-49.4c0.4-1.8-0.7-3.5-2.9-4.8
				c-2.2-1.3-5.3-1.9-8.3-1.7c-16.4,1.1-45.6-0.3-85.6-15.3C1177.5,255.6,1086,292.4,1115.5,363L1115.5,363z"/>
			<path class="st32" d="M1269.6,274.7c2.2,1.3,3.2,3,2.8,4.8c-1.9,9.5,0.4,26.3,26.5,49.4c0,0-63.3,53.2-185.4,36.2l0,0
				c0-0.1-0.1-0.1-0.1-0.2L1269.6,274.7z"/>
			
				<linearGradient id="SVGID_5_" gradientUnits="userSpaceOnUse" x1="970.6128" y1="228.0038" x2="920.1357" y2="168.9087" gradientTransform="matrix(1.5 0.2887 -0.866 0.5 -47.915 -34.1067)">
				<stop  offset="0" style="stop-color:#000000"/>
				<stop  offset="0.1794" style="stop-color:#040404"/>
				<stop  offset="0.342" style="stop-color:#0F0F0F"/>
				<stop  offset="0.4981" style="stop-color:#212121"/>
				<stop  offset="0.6502" style="stop-color:#3B3B3B"/>
				<stop  offset="0.7994" style="stop-color:#5C5C5C"/>
				<stop  offset="0.9445" style="stop-color:#858585"/>
				<stop  offset="1" style="stop-color:#969696"/>
			</linearGradient>
			<path class="st33" d="M1120.8,312.9l-7.2,1.1c-5.3,13.9-6,30.3,1.8,49l0,0c0.3,0,0.6,0.1,0.9,0.1l-3,1.7c0,0.1,0.1,0.1,0.1,0.2
				l0,0c103.9,14.5,165.1-21.8,181.1-33l-4.9-4C1224.6,304.1,1120.8,312.9,1120.8,312.9z"/>
			<path class="st34" d="M1106.1,365.3c-7-16.7-7.9-32.9-2.8-48.3c4.1-12.3,12-24.1,23.6-35c19.7-18.5,43.1-28.1,44.1-28.5l3.9-1.6
				l4,1.5c37.6,14.1,64.8,15.8,80.9,14.7c5.3-0.4,10.5,0.7,14.2,2.9c0,0,0,0,0,0c3.8,2.2,5.6,5.2,4.9,8.2c-1.9,9.3,0.9,25,25.4,46.7
				l2.6,2.3l-2.7,2.3c-0.7,0.6-17,14.1-49,25.6c-18.8,6.7-39.1,11.4-60.4,13.8c-26.6,3-54.7,2.5-83.5-1.6l-2-0.3l-2.9-1.7
				L1106.1,365.3z M1264.9,278.3c0.1-0.5-0.2-1-0.9-1.4c-0.6-0.4-1.6-0.6-2.5-0.5c-17.8,1.2-47-0.4-86.1-14.4
				c-7.1,3.3-23,11.7-36.7,24.7c-23.5,22.2-30.1,47.2-19.8,74.3c46.9,6,90,2.1,128.3-11.6c22.4-8,36.8-17.3,42.5-21.3
				C1265.5,305.4,1262.8,288.6,1264.9,278.3z"/>
		</g>
	</g>
</g>
</svg>
