<svg id="ufo" xmlns="http://www.w3.org/2000/svg" xmlns:xlink="http://www.w3.org/1999/xlink" viewBox="0 0 430.09 454.1"><defs><style>.cls-1,.cls-2{opacity:0.3;}.cls-1,.cls-3{fill:url(#linear-gradient);}.cls-2{fill:url(#linear-gradient-2);}.cls-3{opacity:0.15;}.cls-4,.cls-7{fill:#fff;}.cls-4,.cls-5,.cls-6{opacity:0.8;}.cls-5{fill:url(#linear-gradient-4);}.cls-6{fill:url(#linear-gradient-5);}.cls-8{fill:#ddd;}.cls-9{fill:#505050;}.cls-10{fill:#444;}.cls-11{fill:#717171;}.cls-12{fill:#e5e5e5;}.cls-13{fill:#d1d3d4;}.cls-14{fill:#17a9cb;}.cls-15{fill:#1494b2;}.cls-16,.cls-19,.cls-21{fill:#dfdfdf;}.cls-17{fill:#373737;}.cls-18{fill:#636363;}.cls-19{opacity:0.6;}.cls-20{fill:#4bbcd7;}.cls-21,.cls-25{opacity:0.2;}.cls-22{fill:#acacac;}.cls-22,.cls-24{opacity:0.5;}.cls-23{fill:#2c2c2c;}.cls-24{fill:#828282;}</style><linearGradient id="linear-gradient" x1="215.04" y1="108.04" x2="215.04" y2="450.53" gradientUnits="userSpaceOnUse"><stop offset="0" stop-color="#573fff"/><stop offset="0.04" stop-color="#533cf0"/><stop offset="0.17" stop-color="#4432bb"/><stop offset="0.32" stop-color="#37288d"/><stop offset="0.46" stop-color="#2c2168"/><stop offset="0.6" stop-color="#241b4b"/><stop offset="0.73" stop-color="#1e1737"/><stop offset="0.87" stop-color="#1a152a"/><stop offset="1" stop-color="#191426"/></linearGradient><linearGradient id="linear-gradient-2" x1="215.04" y1="108.04" x2="215.04" y2="450.53" xlink:href="#linear-gradient"/><linearGradient id="linear-gradient-4" x1="241.56" y1="22.5" x2="241.56" y2="112.71" gradientUnits="userSpaceOnUse"><stop offset="0" stop-color="#88008c"/><stop offset="0.15" stop-color="#800185"/><stop offset="0.39" stop-color="#6a0571"/><stop offset="0.69" stop-color="#470c50"/><stop offset="1" stop-color="#191426"/></linearGradient><linearGradient id="linear-gradient-5" x1="241.56" y1="39.31" x2="241.56" y2="112.44" xlink:href="#linear-gradient-4"/></defs><title>spaceship</title><polygon class="cls-1" points="430.09 454.11 0 454.11 152.2 109.52 277.89 109.52 430.09 454.11"/><polygon class="cls-2" points="390.19 454.11 39.9 454.11 161.47 109.52 268.62 109.52 390.19 454.11"/><polygon class="cls-3" points="347.01 454.11 83.07 454.11 173.8 109.52 255.93 109.52 347.01 454.11"/><path class="cls-4" d="M181.1,119.84a60.77,60.77,0,1,0,120.93,0Z" transform="translate(-26.52 -22.66)"/><path class="cls-5" d="M321.71,111.26c.26-2.65.4-5.34.4-8.05a80.55,80.55,0,1,0-161.09,0c0,2.71.14,5.4.4,8.05Z" transform="translate(-26.52 -22.66)"/><path class="cls-6" d="M306.53,111.26q.32-3.23.32-6.53a65.29,65.29,0,0,0-130.58,0,64.16,64.16,0,0,0,.33,6.53Z" transform="translate(-26.52 -22.66)"/><path class="cls-7" d="M184.17,62.59A2.89,2.89,0,0,1,181.81,58,64.76,64.76,0,0,1,208.6,36a2.89,2.89,0,1,1,2.34,5.28,59,59,0,0,0-24.4,20.09A2.89,2.89,0,0,1,184.17,62.59Z" transform="translate(-26.52 -22.66)"/><path class="cls-7" d="M220,38a2.89,2.89,0,0,1-.68-5.7c1.62-.39,3.27-.73,4.91-1a2.89,2.89,0,1,1,.93,5.7c-1.49.25-3,.55-4.47.91A2.72,2.72,0,0,1,220,38Z" transform="translate(-26.52 -22.66)"/><polygon class="cls-7" points="387.89 117.55 42.19 117.55 133.99 87.58 296.09 87.58 387.89 117.55"/><polygon class="cls-8" points="296.09 87.58 285.25 87.58 377.87 117.55 387.89 117.55 296.09 87.58"/><path class="cls-8" d="M417.2,149.49H65.93a4.77,4.77,0,0,1-4.77-4.76h0A4.77,4.77,0,0,1,65.93,140H417.2a4.76,4.76,0,0,1,4.76,4.77h0A4.76,4.76,0,0,1,417.2,149.49Z" transform="translate(-26.52 -22.66)"/><path class="cls-9" d="M275.46,254.84a17.34,17.34,0,0,0-24.06,3.08q-19.28,24.39-39.31,48.19c-6.1,7.25-4.65,18.18,3.47,24.34q25.17,19.14,51.45,36.8c8.56,5.77,20.17,4.12,25.72-3.59q18.21-25.28,35.59-51.16a17.11,17.11,0,0,0-5-23.75Q299,272.31,275.46,254.84Z" transform="translate(-26.52 -22.66)"/><path class="cls-10" d="M307.38,277.91q-27.94,39.4-57.48,77.58c2.76,1.93,4.14,2.89,6.91,4.8q29.31-38.4,57-78C311.22,280.58,309.93,279.69,307.38,277.91Z" transform="translate(-26.52 -22.66)"/><path class="cls-9" d="M309.58,279.44q-27.85,39.46-57.3,77.71l2.14,1.49q29.4-38.34,57.16-77.82Z" transform="translate(-26.52 -22.66)"/><path class="cls-11" d="M267.84,356.48a2.5,2.5,0,0,0-3.37.43,2.22,2.22,0,0,0,.65,3.17,2.49,2.49,0,0,0,3.38-.43A2.23,2.23,0,0,0,267.84,356.48Z" transform="translate(-26.52 -22.66)"/><path class="cls-11" d="M316,289.72a2.28,2.28,0,0,0-3.16.56,2.23,2.23,0,0,0,.61,3.12,2.3,2.3,0,0,0,3.17-.56A2.23,2.23,0,0,0,316,289.72Z" transform="translate(-26.52 -22.66)"/><path class="cls-11" d="M251.33,345a2.48,2.48,0,0,0-3.36.38,2.2,2.2,0,0,0,.59,3.17,2.46,2.46,0,0,0,3.36-.38A2.21,2.21,0,0,0,251.33,345Z" transform="translate(-26.52 -22.66)"/><path class="cls-11" d="M300.52,279a2.29,2.29,0,0,0-3.16.52,2.23,2.23,0,0,0,.55,3.13,2.29,2.29,0,0,0,3.17-.52A2.24,2.24,0,0,0,300.52,279Z" transform="translate(-26.52 -22.66)"/><path class="cls-7" d="M224.44,329.13a8.63,8.63,0,0,1,5.49-3c6.45-.93,9.66-1.42,16.06-2.45a9.53,9.53,0,0,1,10.75,7,8.1,8.1,0,0,1-6.84,9.9c-4.13.67-6.2,1-10.35,1.64-1.12,5.3-1.68,8-2.78,13.27-1,4.59-5.81,7.36-10.86,6.12s-8.3-6-7.28-10.56c1.68-7.47,2.52-11.2,4.23-18.66A7.9,7.9,0,0,1,224.44,329.13Z" transform="translate(-26.52 -22.66)"/><path class="cls-12" d="M219.84,353c1.66-7.47,2.5-11.2,4.19-18.66a7.88,7.88,0,0,1,1.58-3.23,9.12,9.12,0,0,1,6.21-3.1c6.46-.94,9.67-1.44,16.07-2.47a9.12,9.12,0,0,1,6.54,1.86,9.68,9.68,0,0,0-9.16-3.67c-6.4,1-9.61,1.51-16.07,2.44a8.65,8.65,0,0,0-5.49,3,7.9,7.9,0,0,0-1.58,3.22c-1.71,7.45-2.56,11.18-4.23,18.65a8.71,8.71,0,0,0,3.59,8.83A8.36,8.36,0,0,1,219.84,353Z" transform="translate(-26.52 -22.66)"/><path class="cls-13" d="M234.42,350.52c-5.32-3.84-12.7-3.18-16.56,1.5s-2.69,11.67,2.72,15.58,12.93,3.2,16.71-1.55S239.74,354.37,234.42,350.52Z" transform="translate(-26.52 -22.66)"/><path class="cls-7" d="M227.73,367.86a1.93,1.93,0,0,1-.51-2.78,2.21,2.21,0,0,1,3-.27,1.92,1.92,0,0,1,.51,2.77A2.21,2.21,0,0,1,227.73,367.86Z" transform="translate(-26.52 -22.66)"/><path class="cls-7" d="M213.27,297.52q-16.07-12.67-31.66-25.95a9,9,0,0,1-1.07-12.95h0a9.54,9.54,0,0,1,13.21-.68c6.55,5.58,9.87,8.34,16.57,13.81a5.08,5.08,0,0,0,7-.3,4.72,4.72,0,0,0-.63-6.84c-6.72-5.48-10-8.24-16.61-13.83a9,9,0,0,1-1-12.87h0A9.26,9.26,0,0,1,212,237q15,12.76,30.54,25Q228,279.88,213.27,297.52Z" transform="translate(-26.52 -22.66)"/><path class="cls-12" d="M244.54,258a1.17,1.17,0,0,0-1.62.22q-16,20-32.54,39.47a1.14,1.14,0,0,0,.15,1.63c2.39,1.89,3.58,2.83,6,4.7a1.24,1.24,0,0,0,1.69-.19q16.35-19.67,32.23-39.73a1.14,1.14,0,0,0-.15-1.62C248,260.73,246.83,259.84,244.54,258Z" transform="translate(-26.52 -22.66)"/><path class="cls-12" d="M216.2,306.26a9.64,9.64,0,0,0,1.68,1.7q19.06,14.58,38.56,28.55c4.16,2.95,9.92,2.23,12.79-1.59q12-15.92,23.66-32.07a8.59,8.59,0,0,0-2.21-12.06Q272,277.47,253.77,263.58a9.09,9.09,0,0,0-2-1.15Q234.23,284.56,216.2,306.26Z" transform="translate(-26.52 -22.66)"/><path class="cls-14" d="M242.08,306.55A7.4,7.4,0,0,1,240.5,296c2.64-3.3,4-5,6.58-8.27a7.83,7.83,0,0,1,10.8-1.26L261.3,289A7.45,7.45,0,0,1,263,299.52c-2.57,3.36-3.86,5-6.45,8.38a7.94,7.94,0,0,1-11,1.26C244.17,308.12,243.47,307.6,242.08,306.55Z" transform="translate(-26.52 -22.66)"/><path class="cls-15" d="M252.79,310.45a8.26,8.26,0,0,1-5.16-1.62l-3.49-2.59a7.4,7.4,0,0,1-1.6-10.58c2.64-3.31,4-5,6.57-8.28a7.48,7.48,0,0,1,3.72-2.53,7.59,7.59,0,0,0-5.75,2.85c-2.62,3.31-3.94,5-6.58,8.27a7.4,7.4,0,0,0,1.58,10.58c1.39,1.05,2.09,1.57,3.49,2.61A8.23,8.23,0,0,0,252.79,310.45Z" transform="translate(-26.52 -22.66)"/><path class="cls-16" d="M247.74,302.9a6.4,6.4,0,0,1-1.39-9.13,6.82,6.82,0,0,1,9.38-1.07,6.43,6.43,0,0,1,1.43,9.11A6.8,6.8,0,0,1,247.74,302.9Z" transform="translate(-26.52 -22.66)"/><path class="cls-17" d="M248.72,301.66a4.83,4.83,0,0,1-1.05-6.9,5.15,5.15,0,0,1,7.09-.81,4.87,4.87,0,0,1,1.08,6.89A5.16,5.16,0,0,1,248.72,301.66Z" transform="translate(-26.52 -22.66)"/><path class="cls-18" d="M252.81,298.2a1.51,1.51,0,0,1-.33-2.15,1.61,1.61,0,0,1,2.21-.25,1.5,1.5,0,0,1,.33,2.14A1.6,1.6,0,0,1,252.81,298.2Z" transform="translate(-26.52 -22.66)"/><path class="cls-19" d="M253.5,299.05a.71.71,0,0,1-.16-1,.75.75,0,0,1,1-.12.72.72,0,0,1,.16,1A.74.74,0,0,1,253.5,299.05Z" transform="translate(-26.52 -22.66)"/><path class="cls-19" d="M252.53,296.2a.84.84,0,0,1-.19-1.2.9.9,0,0,1,1.24-.15.85.85,0,0,1,.18,1.2A.89.89,0,0,1,252.53,296.2Z" transform="translate(-26.52 -22.66)"/><path class="cls-20" d="M262.23,293.78a1.15,1.15,0,0,0-1.6.2,1.11,1.11,0,0,0,.25,1.56,1.17,1.17,0,0,0,1.6-.2A1.1,1.1,0,0,0,262.23,293.78Z" transform="translate(-26.52 -22.66)"/><path class="cls-21" d="M255.84,300.84a5.52,5.52,0,0,0,.43-.68c-.36-2.26-.53-3.4-.88-5.66a6.53,6.53,0,0,0-.63-.55,5.31,5.31,0,0,0-4.09-1c.59,3.89.89,5.84,1.5,9.73A4.91,4.91,0,0,0,255.84,300.84Z" transform="translate(-26.52 -22.66)"/><path class="cls-21" d="M251.13,302.66c-.59-3.76-.88-5.64-1.45-9.39a4.73,4.73,0,0,0-1.5.94c.47,3.15.71,4.72,1.2,7.87A5.31,5.31,0,0,0,251.13,302.66Z" transform="translate(-26.52 -22.66)"/><path class="cls-22" d="M253.7,263.53a9,9,0,0,0-1.92-1.1q-17.55,22.13-35.58,43.83a9.59,9.59,0,0,0,1.61,1.64Q236,285.91,253.7,263.53Z" transform="translate(-26.52 -22.66)"/><path class="cls-17" d="M244,272.24l3.26-4.1c13.53,10.45,27.26,20.63,41.27,30.42l-3.09,4.23C271.37,293,257.58,282.73,244,272.24Z" transform="translate(-26.52 -22.66)"/><path class="cls-9" d="M244.75,271.48l.87-1.1c13.55,10.47,27.32,20.68,41.36,30.49-.33.45-.49.68-.83,1.13C272.09,292.18,258.31,282,244.75,271.48Z" transform="translate(-26.52 -22.66)"/><path class="cls-17" d="M220.87,300.65l3.35-4q20.86,16.17,42.44,31.38l-3.18,4.19C249,322,234.83,311.47,220.87,300.65Z" transform="translate(-26.52 -22.66)"/><path class="cls-9" d="M221.64,299.91l.9-1.09c13.93,10.8,28.09,21.33,42.53,31.45l-.85,1.12C249.76,321.26,235.59,310.72,221.64,299.91Z" transform="translate(-26.52 -22.66)"/><path class="cls-8" d="M284.46,320.65c-6.91,9.43-10.41,14.13-17.47,23.48-13.14-9.08-10.47-18.94-9.48-24S264,307.2,264,307.2l.47-.62L265,306s6.15-7.41,10.78-9.85,13.23-7.77,25.8.87C294.79,306.49,291.37,311.22,284.46,320.65Z" transform="translate(-26.52 -22.66)"/><path class="cls-7" d="M301.44,297.13c-9.44-4.87-16.65.14-20.65,2.57-4.36,2.65-10.42,10.13-10.42,10.13l-.47.62-.47.63s-5.53,7.87-6.77,12.74c-1.14,4.46-3.81,12.83,4.44,20.16l-.11.15c-13.14-9.08-10.47-18.94-9.48-24S264,307.2,264,307.2l.47-.62L265,306s6.15-7.41,10.78-9.85,13.23-7.77,25.8.87Z" transform="translate(-26.52 -22.66)"/><path class="cls-7" d="M328.29,308.15c0,.75,0,1.12.06,1.87,0,0,1.38,1.76.89,3.08,0,0,5.44,6,7.11,10.67s2.53,11.61.76,17.19a51.91,51.91,0,0,1-4.41,10l-.52.78-.52.78a51.83,51.83,0,0,1-7.61,8c-4.58,3.86-11.63,5.89-16.92,6.21s-13.43-2.41-13.43-2.41c-1.1.94-3.41.31-3.41.31l-1.86.62a3.1,3.1,0,0,1-2.66-.37c-3-2-4.54-3-7.54-5a2.85,2.85,0,0,1-1.26-2c-.09-.7-.13-1.05-.22-1.75-8.89-6-10.61-10.27-11.78-15.24s.26-13,1.66-17.39,5.5-10.63,5.5-10.63l.41-.55.42-.55s4.88-5.69,8.7-8.35,11.13-6.54,16.22-7.16,9.6-.53,18.05,5.11l1.72-.46a2.83,2.83,0,0,1,2.26.38c2.84,1.88,4.27,2.82,7.14,4.69A2.68,2.68,0,0,1,328.29,308.15Z" transform="translate(-26.52 -22.66)"/><path class="cls-17" d="M322.8,307.91c4.77,3.43,5,2.57,3.62,7.88a89,89,0,0,1-7.55,18.15,73.23,73.23,0,0,1-3.84,6.47l-.26.37-.26.38a67,67,0,0,1-4.71,5.91,87,87,0,0,1-14.63,13.65c-4.65,3.17-3.91,2.7-9.22-.48a88.84,88.84,0,0,1-15.25-12.51c-3.1-3.23-3.27-9.91-2.29-18.14a37.13,37.13,0,0,1,5.73-14.91l.6-.8.6-.8a40.39,40.39,0,0,1,12.72-10c7.64-3.56,14-5.69,18-4.06A95,95,0,0,1,322.8,307.91Z" transform="translate(-26.52 -22.66)"/><path class="cls-23" d="M322.8,307.91c4.62,3.33,4.94,2.62,3.73,7.41a118.49,118.49,0,0,0-18-9.22c-4.66-1.86-12,.6-20.83,4.7A46.62,46.62,0,0,0,273,322.27l-.69.91-.69.92a42.86,42.86,0,0,0-3.25,5.89c0-.14,0-.27.05-.4a37.13,37.13,0,0,1,5.73-14.91l.6-.8.6-.8a40.39,40.39,0,0,1,12.72-10c7.64-3.56,14-5.69,18-4.06A95,95,0,0,1,322.8,307.91Z" transform="translate(-26.52 -22.66)"/><path class="cls-8" d="M306.61,359.27a2.54,2.54,0,0,0-3.43.56,2.29,2.29,0,0,0,.76,3.25,2.55,2.55,0,0,0,3.44-.57A2.28,2.28,0,0,0,306.61,359.27Z" transform="translate(-26.52 -22.66)"/><path class="cls-8" d="M316,355.59a3.21,3.21,0,0,0-4.35.75,2.89,2.89,0,0,0,1,4.12,3.21,3.21,0,0,0,4.36-.75A2.91,2.91,0,0,0,316,355.59Z" transform="translate(-26.52 -22.66)"/><path class="cls-8" d="M275.69,299.45a1.37,1.37,0,0,0-1.89.26,1.29,1.29,0,0,0,.32,1.83,1.35,1.35,0,0,0,1.88-.26A1.29,1.29,0,0,0,275.69,299.45Z" transform="translate(-26.52 -22.66)"/><path class="cls-8" d="M278.5,297.59a.87.87,0,0,0-1.21.17.83.83,0,0,0,.2,1.18.88.88,0,0,0,1.22-.17A.84.84,0,0,0,278.5,297.59Z" transform="translate(-26.52 -22.66)"/><path class="cls-24" d="M318.87,333.94a73.23,73.23,0,0,1-3.84,6.47l-.26.37-.26.38a67,67,0,0,1-4.71,5.91c-.24.28-.49.58-.75.87q-16.37,2.78-32.82,5c-2.22-1.94-4.19-3.81-5.53-5.21-1.76-1.83-2.58-4.78-2.77-8.48,17.53-2.3,35-4.95,52.41-8.12C319.85,332.13,319.35,333.07,318.87,333.94Z" transform="translate(-26.52 -22.66)"/><path class="cls-24" d="M323,325.52q-27.42,4.86-55,8.59c.09-1.44.24-2.95.43-4.52.08-.72.2-1.44.34-2.13,19.05-2.61,38-5.61,56.9-9C324.93,320.65,324,323.1,323,325.52Z" transform="translate(-26.52 -22.66)"/><g class="cls-25"><path class="cls-7" d="M294.18,341.76a8.84,8.84,0,0,0-12,1.78c-2.66,3.62-1.6,8.74,2.42,11.41s9.45,1.85,12.06-1.81S298.15,344.39,294.18,341.76Z" transform="translate(-26.52 -22.66)"/></g><g class="cls-25"><path class="cls-7" d="M301.8,343.62a4.41,4.41,0,0,0-6,.95,4,4,0,0,0,1.26,5.69,4.41,4.41,0,0,0,6-1A4,4,0,0,0,301.8,343.62Z" transform="translate(-26.52 -22.66)"/></g><g class="cls-25"><path class="cls-7" d="M282.84,340.79a3.28,3.28,0,0,0-4.45.63,3,3,0,0,0,.87,4.24,3.27,3.27,0,0,0,4.46-.64A3,3,0,0,0,282.84,340.79Z" transform="translate(-26.52 -22.66)"/></g><path class="cls-7" d="M289.7,290.07c.15-.17.3-.34.44-.53a11.36,11.36,0,0,0-2.71-15.89q-13.53-9.73-26.74-20c-2.95,3.8-4.43,5.7-7.41,9.49Q271.3,276.92,289.7,290.07Z" transform="translate(-26.52 -22.66)"/><path class="cls-12" d="M290.14,289.54c-.14.19-.29.36-.44.53l-.09-.06a11.42,11.42,0,0,0-3.67-14.34q-13.56-9.75-26.79-20l1.54-2q13.19,10.21,26.74,20A11.36,11.36,0,0,1,290.14,289.54Z" transform="translate(-26.52 -22.66)"/><path class="cls-13" d="M250.34,264.08a8.48,8.48,0,0,1-1.5-12,8.6,8.6,0,1,1,1.5,12Z" transform="translate(-26.52 -22.66)"/><path class="cls-7" d="M259,257.31a1.77,1.77,0,1,1,2.5-.31A1.79,1.79,0,0,1,259,257.31Z" transform="translate(-26.52 -22.66)"/></svg>